<mxfile host="app.diagrams.net" agent="Mozilla/5.0 (Windows NT 10.0; Win64; x64; rv:139.0) Gecko/20100101 Firefox/139.0" version="27.1.4">
  <diagram name="Página-1" id="ZfuYBb1uDBB9Q9XqHdRm">
    <mxGraphModel grid="1" page="1" gridSize="10" guides="1" tooltips="1" connect="1" arrows="1" fold="1" pageScale="1" pageWidth="827" pageHeight="1169" math="0" shadow="0">
      <root>
        <mxCell id="0" />
        <mxCell id="1" parent="0" />
        <mxCell id="BmFVV5dvgS2SXFAjIAYb-1" style="edgeStyle=orthogonalEdgeStyle;rounded=0;orthogonalLoop=1;jettySize=auto;html=1;exitX=0.5;exitY=0.5;exitDx=0;exitDy=0;exitPerimeter=0;entryX=0;entryY=0.5;entryDx=0;entryDy=0;" edge="1" parent="1" source="BmFVV5dvgS2SXFAjIAYb-2" target="BmFVV5dvgS2SXFAjIAYb-3">
          <mxGeometry relative="1" as="geometry" />
        </mxCell>
        <mxCell id="BmFVV5dvgS2SXFAjIAYb-2" value="Sistema" style="shape=umlActor;verticalLabelPosition=bottom;verticalAlign=top;html=1;" vertex="1" parent="1">
          <mxGeometry x="70" y="445" width="30" height="60" as="geometry" />
        </mxCell>
        <mxCell id="BmFVV5dvgS2SXFAjIAYb-3" value="Automatizar Procesos de Auditoría" style="ellipse;whiteSpace=wrap;html=1;" vertex="1" parent="1">
          <mxGeometry x="160" y="440" width="140" height="70" as="geometry" />
        </mxCell>
        <mxCell id="BmFVV5dvgS2SXFAjIAYb-4" value="Registrando acciones y cambios en auditoría" style="ellipse;whiteSpace=wrap;html=1;" vertex="1" parent="1">
          <mxGeometry x="420" y="400" width="140" height="70" as="geometry" />
        </mxCell>
        <mxCell id="BmFVV5dvgS2SXFAjIAYb-6" value="Consultando registros de auditoría" style="ellipse;whiteSpace=wrap;html=1;" vertex="1" parent="1">
          <mxGeometry x="420" y="480" width="140" height="70" as="geometry" />
        </mxCell>
        <mxCell id="BmFVV5dvgS2SXFAjIAYb-11" value="Extends" style="endArrow=block;endSize=16;endFill=0;html=1;rounded=0;exitX=1;exitY=0.5;exitDx=0;exitDy=0;entryX=0;entryY=0.5;entryDx=0;entryDy=0;" edge="1" parent="1" source="BmFVV5dvgS2SXFAjIAYb-3" target="BmFVV5dvgS2SXFAjIAYb-4">
          <mxGeometry width="160" relative="1" as="geometry">
            <mxPoint x="330" y="590" as="sourcePoint" />
            <mxPoint x="490" y="590" as="targetPoint" />
          </mxGeometry>
        </mxCell>
        <mxCell id="BmFVV5dvgS2SXFAjIAYb-16" value="Extends" style="endArrow=block;endSize=16;endFill=0;html=1;rounded=0;exitX=1;exitY=0.5;exitDx=0;exitDy=0;entryX=0;entryY=0.5;entryDx=0;entryDy=0;" edge="1" parent="1" source="BmFVV5dvgS2SXFAjIAYb-3" target="BmFVV5dvgS2SXFAjIAYb-6">
          <mxGeometry width="160" relative="1" as="geometry">
            <mxPoint x="160" y="170" as="sourcePoint" />
            <mxPoint x="320" y="170" as="targetPoint" />
          </mxGeometry>
        </mxCell>
      </root>
    </mxGraphModel>
  </diagram>
</mxfile>
